<?xml version="1.0" encoding="UTF-8"?>
<svg id="Layer_2" xmlns="http://www.w3.org/2000/svg" viewBox="0 0 1454.57 342.23">
  <defs>
    <style>
      .cls-1 {
        fill: #fff;
      }
    </style>
  </defs>
  <g id="Layer_1-2" data-name="Layer_1">
    <g>
      <path class="cls-1" d="M149.38,86.06v20.49c0,8.84,7.16,16,16,16h30.51v133.13h43.13V123.22h48.13c-13.5,49.82-27.06,99.22-40.21,148.72-3.84,14.46-7.42,28.66-17.21,40.75-11.7,14.45-26.33,23.67-44.33,27.37-6.79,1.4-13.91,1.65-20.87,1.66-51.56.13-103.11.07-154.67.07H0c2.03-8.58,3.68-16.44,5.74-24.2,11.28-42.35,22.64-84.68,34.01-127.01,12.57-46.78,24.31-93.81,38.08-140.24C86.48,21.19,118.07.1,145.11.31c55.22.42,110.44.13,165.66.13h9.15c-7.34,27.63-14.42,54.8-22.04,81.81-.52,1.86-5.11,3.64-7.82,3.65-43.44.23-86.89.16-130.33.16-3.13,0-6.25,0-10.34,0Z"/>
      <path class="cls-1" d="M521.78,341.36c5.64-21.37,11.13-42.4,16.73-63.41,9.64-36.17,19.27-72.35,29.04-108.48,10.85-40.09,21.47-80.25,32.95-120.16C608.02,23.14,639.44-.03,668.18.27c54.71.56,109.43.16,164.15.16,2.86,0,5.72,0,9.71,0-17.16,63.91-34.13,127.1-51.5,191.8-9.12-31.61-35.5-36.8-60.96-43.42-9.66-2.51-19.44-4.77-28.78-8.2-2.7-.99-5.87-5.87-5.55-8.58.39-3.3,3.67-7.93,6.71-8.94,13.92-4.63,27.64-1.4,40.79,3.71,7.12,2.76,13.69,6.92,21.07,10.73,6.97-9.55,14.54-19.92,22.35-30.63-13.83-12.94-30.62-18.76-48.38-22.29-17.91-3.56-35.68-2.12-52.48,4.78-21.48,8.82-33.23,24.91-34.76,47.06-1.41,20.48,12.68,39.32,33.55,45.83,17.11,5.34,34.61,9.43,51.94,14.07,6.01,1.61,11.91,3.54,11.36,11.38-.41,5.93-7.06,10.53-14.64,11.74-24.79,3.96-45.48-4.83-64.84-20.46-7.43,10.84-14.82,21.62-22.26,32.47,18.41,16.72,40.19,24.79,64.56,26.19,24.03,1.39,47.1-1.34,67.83-19.53-2.7,10.42-4.5,18.79-7.05,26.94-4.05,12.96-6.85,26.72-13.3,38.43-12.78,23.17-33.64,37.37-60.23,37.91-56.53,1.16-113.09.36-169.64.34-1.8,0-3.61-.24-6.05-.42Z"/>
      <path class="cls-1" d="M521.74,123.56c-13.63-22.05-32.42-35.71-58.29-39.13-32.25-4.27-60.7,3.66-83.16,27.59-18.74,19.97-24.67,44.19-21.26,71.47,2.32,18.55,9.95,34.34,22.19,47.41,12.29,13.12,28.1,21.87,46.12,25.07,28.52,5.06,55.65,1.73,79.98-15.4,3.32-2.34,6.49-4.87,11.63-8.74-3.28,12.1-5.99,22.03-8.67,31.97-4.53,16.82-7.28,34.38-18.89,48.39-12.23,14.75-27.02,25.59-46.64,27.98-8.48,1.03-17.07,1.54-25.62,1.57-49.48.14-98.96.07-148.44.07h-9.89c2.6-10.24,4.91-19.77,7.45-29.23,9.63-35.91,19.34-71.8,29.03-107.69,12.36-45.79,25.02-91.5,36.94-137.4,3.86-14.88,7.85-29.59,18.42-41.04,13.45-14.57,29.43-25.75,50.21-25.88,56.55-.35,113.09-.12,169.64-.12,2.6,0,5.19,0,8.49,0-18.33,68.32-36.49,136-54.66,203.69-.46-.06-.92-.12-1.38-.18v-45.24h-81.67v37.58h37.69c2.35,13.79,2.14,15.05-9.62,19.84-26.13,10.65-56.8,3-66.45-27.29-8.66-27.19-.16-59.19,34.1-66.8,19.33-4.29,35.84,2.2,47.38,20.21,11.83-6.26,23.39-12.37,35.35-18.69Z"/>
    </g>
    <g>
      <g>
        <path class="cls-1" d="M918.97,16.33h-24.49V1.46h68v6.87c0,4.42-3.58,8-8,8h-16.49v70.43h-19.01V16.33Z"/>
        <path class="cls-1" d="M1009.27,88.23c-5.44,0-10.4-.73-14.87-2.19-4.47-1.46-8.31-3.67-11.52-6.64-3.21-2.96-5.69-6.68-7.43-11.15-1.75-4.47-2.62-9.71-2.62-15.72V1.46h19.01v50.57c0,6.91,1.36,12.15,4.08,15.72,2.72,3.58,7.17,5.36,13.34,5.36s10.62-1.79,13.34-5.36c2.72-3.57,4.08-8.81,4.08-15.72V1.46h19.01v51.06c0,6.01-.87,11.25-2.62,15.72-1.75,4.47-4.23,8.19-7.43,11.15-3.21,2.97-7.05,5.18-11.52,6.64-4.47,1.46-9.43,2.19-14.87,2.19Z"/>
        <path class="cls-1" d="M1128.44,27.66c0,5.77-1.52,10.68-4.57,14.75-3.05,4.06-7.25,7.15-12.61,9.26l23.52,35.1h-11.99c-5.44,0-10.51-2.76-13.45-7.34l-15.99-24.83h-10.36v32.17h-19.01V1.46h30.83c4.79,0,9.24.55,13.34,1.65,4.1,1.1,7.66,2.72,10.66,4.87,3,2.15,5.36,4.87,7.07,8.17,1.71,3.29,2.56,7.13,2.56,11.52ZM1109.19,27.66c0-4.14-1.36-7.15-4.08-9.02-2.72-1.87-6.56-2.8-11.52-2.8h-10.6v24.37h10.6c4.95,0,8.79-1.05,11.52-3.17,2.72-2.11,4.08-5.24,4.08-9.38Z"/>
        <path class="cls-1" d="M1214.6,1.46l-31.32,39.97,36.44,45.33h-15.51c-4.97,0-9.67-2.31-12.69-6.26l-27.73-36.15v42.41h-19.01V1.46h19.01v37.04l28.88-37.04h21.93Z"/>
        <path class="cls-1" d="M1247.01,1.46v85.3h-19.01V1.46h19.01Z"/>
        <path class="cls-1" d="M1262.24,24.01c0-7.47,2.72-13.34,8.16-17.61,5.44-4.27,13.28-6.4,23.52-6.4,4.22,0,8.37.37,12.43,1.1,4.06.73,7.84,1.79,11.33,3.17l-1.34,15.35c-7.15-3-14.18-4.51-21.08-4.51-4.96,0-8.49.77-10.6,2.32-2.11,1.54-3.17,3.49-3.17,5.85,0,2.6,1.05,4.9,3.17,6.89,2.11,1.99,6.09,3.96,11.94,5.91,8.94,3.01,15.43,6.62,19.5,10.85,4.06,4.22,6.09,9.59,6.09,16.08,0,8.04-2.72,14.26-8.17,18.64-5.44,4.39-13.73,6.58-24.86,6.58-4.63,0-9.28-.49-13.95-1.46-4.67-.97-8.88-2.4-12.61-4.26l1.46-16.7c3.41,2.36,7.21,4.16,11.39,5.42,4.18,1.26,8.55,1.89,13.1,1.89s7.88-.75,10.48-2.25c2.6-1.5,3.9-3.84,3.9-7.01,0-1.46-.24-2.8-.73-4.02s-1.36-2.33-2.62-3.35c-1.26-1.01-2.95-2.01-5.06-2.99-2.11-.97-4.75-1.99-7.92-3.05-8.37-2.6-14.52-6.05-18.46-10.36-3.94-4.31-5.91-9.67-5.91-16.09Z"/>
        <path class="cls-1" d="M1336.21,1.46h19.01v32.54h33.63V1.46h19.01v85.3h-19.01v-37.9h-33.63v37.9h-19.01V1.46Z"/>
      </g>
      <g>
        <path class="cls-1" d="M893.48,171.08c0-6.34,1.05-12.19,3.17-17.55,2.11-5.36,5.18-10.01,9.2-13.95,4.02-3.94,8.94-7.03,14.75-9.26,5.81-2.23,12.41-3.35,19.8-3.35,10.32,0,19.66,1.79,28.03,5.36l-1.46,16.21c-3.66-2.11-7.6-3.72-11.82-4.81-4.23-1.1-8.45-1.64-12.67-1.64-4.55,0-8.65.67-12.31,2.01-3.66,1.34-6.76,3.27-9.32,5.79-2.56,2.52-4.55,5.57-5.97,9.14-1.42,3.58-2.13,7.6-2.13,12.06s.69,8.63,2.07,12.25c1.38,3.62,3.35,6.66,5.91,9.14,2.56,2.48,5.65,4.37,9.26,5.67,3.61,1.3,7.7,1.95,12.25,1.95,1.79,0,3.41-.1,4.87-.3,1.46-.2,2.76-.51,3.9-.91v-19.25h-18.28v-14.87h37.29v45.33c-4.39,1.87-8.92,3.19-13.59,3.96-4.67.77-9.57,1.16-14.68,1.16-7.48,0-14.2-1.08-20.17-3.23-5.97-2.15-11.03-5.16-15.17-9.02-4.14-3.86-7.33-8.49-9.57-13.89-2.24-5.4-3.35-11.39-3.35-17.97Z"/>
        <path class="cls-1" d="M1051.53,154.63c0,5.77-1.52,10.68-4.57,14.75-3.05,4.06-7.25,7.15-12.61,9.26l23.52,35.1h-11.99c-5.44,0-10.51-2.76-13.45-7.34l-15.99-24.83h-10.36v32.17h-19.01v-85.3h30.83c4.79,0,9.24.55,13.34,1.65,4.1,1.1,7.66,2.72,10.66,4.87,3,2.15,5.36,4.87,7.07,8.17,1.71,3.29,2.56,7.13,2.56,11.52ZM1032.27,154.63c0-4.14-1.36-7.15-4.08-9.02-2.72-1.87-6.56-2.8-11.52-2.8h-10.6v24.37h10.6c4.95,0,8.79-1.05,11.52-3.17,2.72-2.11,4.08-5.24,4.08-9.38Z"/>
        <path class="cls-1" d="M1143.9,171.08c0,6.26-.9,12.06-2.68,17.43-1.79,5.36-4.39,10.03-7.8,14.01-3.41,3.98-7.64,7.09-12.67,9.32-5.04,2.23-10.81,3.35-17.3,3.35s-12.27-1.12-17.3-3.35c-5.04-2.23-9.26-5.34-12.67-9.32-3.41-3.98-6.01-8.65-7.8-14.01-1.79-5.36-2.68-11.17-2.68-17.43s.89-12.06,2.68-17.43c1.79-5.36,4.39-10.03,7.8-14.01,3.41-3.98,7.64-7.09,12.67-9.32,5.04-2.23,10.8-3.35,17.3-3.35s12.27,1.12,17.3,3.35c5.04,2.24,9.26,5.34,12.67,9.32,3.41,3.98,6.01,8.65,7.8,14.01,1.79,5.36,2.68,11.17,2.68,17.43ZM1124.64,171.08c0-9.26-1.91-16.41-5.73-21.45-3.82-5.04-8.98-7.55-15.48-7.55s-11.66,2.52-15.48,7.55c-3.82,5.04-5.73,12.19-5.73,21.45s1.91,16.51,5.73,21.51c3.82,5,8.98,7.49,15.48,7.49s11.66-2.5,15.48-7.49c3.82-5,5.73-12.17,5.73-21.51Z"/>
        <path class="cls-1" d="M1194.35,215.2c-5.44,0-10.4-.73-14.87-2.19-4.47-1.46-8.31-3.67-11.52-6.64-3.21-2.96-5.69-6.68-7.43-11.15-1.75-4.47-2.62-9.71-2.62-15.72v-51.06h19.01v50.57c0,6.91,1.36,12.15,4.08,15.72,2.72,3.58,7.17,5.36,13.34,5.36s10.62-1.79,13.34-5.36c2.72-3.57,4.08-8.81,4.08-15.72v-50.57h19.01v51.06c0,6.01-.87,11.25-2.62,15.72-1.75,4.47-4.23,8.19-7.43,11.15-3.21,2.97-7.05,5.18-11.52,6.64-4.47,1.46-9.43,2.19-14.87,2.19Z"/>
        <path class="cls-1" d="M1249.06,128.43h12.09c5.78,0,11.11,3.12,13.95,8.16l28.31,50.34v-58.49h18.4v85.3h-21.45l-32.9-58.49v58.49h-18.4v-85.3Z"/>
        <path class="cls-1" d="M1412.47,171.08c0,7.07-1.16,13.28-3.47,18.64-2.32,5.36-5.53,9.81-9.63,13.34-4.1,3.53-8.98,6.2-14.62,7.98-5.65,1.79-11.84,2.68-18.58,2.68h-26.08v-85.3h26.08c6.74,0,12.94.89,18.58,2.68,5.65,1.79,10.52,4.47,14.62,8.04,4.1,3.58,7.31,8.02,9.63,13.34,2.32,5.32,3.47,11.52,3.47,18.58ZM1393.22,171.2c0-5.04-.63-9.32-1.89-12.86-1.26-3.53-3.09-6.42-5.48-8.65-2.4-2.23-5.36-3.86-8.9-4.88-3.53-1.01-7.58-1.52-12.12-1.52h-5.73v55.57h5.73c4.55,0,8.59-.51,12.12-1.52,3.54-1.02,6.5-2.62,8.9-4.81,2.39-2.19,4.22-5.04,5.48-8.53,1.26-3.49,1.89-7.76,1.89-12.8Z"/>
      </g>
      <g>
        <path class="cls-1" d="M895.48,277.88c0-7.47,2.72-13.34,8.17-17.61,5.44-4.27,13.28-6.4,23.52-6.4,4.22,0,8.37.37,12.43,1.1,4.06.73,7.84,1.79,11.33,3.17l-1.34,15.35c-7.15-3-14.18-4.51-21.08-4.51-4.96,0-8.49.77-10.6,2.32-2.11,1.54-3.17,3.49-3.17,5.85,0,2.6,1.05,4.9,3.17,6.89,2.11,1.99,6.09,3.96,11.94,5.91,8.94,3.01,15.43,6.62,19.5,10.85,4.06,4.22,6.09,9.59,6.09,16.08,0,8.04-2.72,14.26-8.16,18.64-5.44,4.39-13.73,6.58-24.86,6.58-4.63,0-9.28-.49-13.95-1.46-4.67-.97-8.88-2.4-12.61-4.26l1.46-16.7c3.41,2.36,7.21,4.16,11.39,5.42,4.18,1.26,8.55,1.89,13.1,1.89s7.88-.75,10.48-2.25c2.6-1.5,3.9-3.84,3.9-7.01,0-1.46-.24-2.8-.73-4.02-.49-1.22-1.36-2.33-2.62-3.35-1.26-1.01-2.95-2.01-5.06-2.99-2.11-.97-4.75-1.99-7.92-3.05-8.37-2.6-14.52-6.05-18.46-10.36-3.94-4.31-5.91-9.67-5.91-16.09Z"/>
        <path class="cls-1" d="M969.45,255.34h57.88v6.87c0,4.42-3.58,8-8,8h-30.87v19.25h36.07v14.87h-36.07v21.45h39.97v14.87h-58.98v-85.3Z"/>
        <path class="cls-1" d="M1106.9,281.54c0,5.77-1.52,10.68-4.57,14.75-3.05,4.06-7.25,7.15-12.61,9.26l23.52,35.1h-11.99c-5.44,0-10.51-2.76-13.45-7.34l-15.99-24.83h-10.36v32.17h-19.01v-85.3h30.83c4.79,0,9.24.55,13.34,1.65,4.1,1.1,7.66,2.72,10.66,4.87,3,2.15,5.36,4.87,7.07,8.17,1.71,3.29,2.56,7.13,2.56,11.52ZM1087.65,281.54c0-4.14-1.36-7.15-4.08-9.02-2.72-1.87-6.56-2.8-11.52-2.8h-10.6v24.37h10.6c4.96,0,8.79-1.05,11.52-3.17,2.72-2.11,4.08-5.24,4.08-9.38Z"/>
        <path class="cls-1" d="M1177.83,255.34h20.23l-29.73,85.3h-23.64l-29.73-85.3h20.23l21.33,66.05,21.33-66.05Z"/>
        <path class="cls-1" d="M1228.88,255.34v85.3h-19.01v-85.3h19.01Z"/>
        <path class="cls-1" d="M1243.51,297.99c0-6.5,1.06-12.45,3.17-17.85,2.11-5.4,5.12-10.05,9.02-13.95s8.63-6.92,14.2-9.08c5.56-2.15,11.8-3.23,18.71-3.23,3.98,0,7.98.37,12,1.1,4.02.73,7.57,1.83,10.66,3.29l-1.34,15.84c-2.6-1.79-5.57-3.09-8.9-3.9-3.33-.81-6.74-1.22-10.24-1.22-4.47,0-8.45.69-11.94,2.07-3.49,1.38-6.42,3.35-8.77,5.91-2.36,2.56-4.16,5.63-5.42,9.2-1.26,3.58-1.89,7.52-1.89,11.82,0,9.18,2.52,16.33,7.56,21.45,5.04,5.12,11.98,7.68,20.84,7.68,3.57,0,6.96-.45,10.18-1.34,3.21-.89,6.23-2.32,9.08-4.26l1.46,16.21c-3.49,1.63-7.23,2.78-11.21,3.47-3.98.69-7.84,1.04-11.58,1.04-6.99,0-13.28-1.06-18.89-3.17s-10.4-5.1-14.38-8.96c-3.98-3.86-7.03-8.51-9.14-13.95-2.11-5.44-3.17-11.49-3.17-18.16Z"/>
        <path class="cls-1" d="M1325.27,255.34h57.88v6.87c0,4.42-3.58,8-8,8h-30.87v19.25h36.07v14.87h-36.07v21.45h39.97v14.87h-58.98v-85.3Z"/>
        <path class="cls-1" d="M1394.61,277.88c0-7.47,2.72-13.34,8.17-17.61,5.44-4.27,13.28-6.4,23.52-6.4,4.22,0,8.37.37,12.43,1.1,4.06.73,7.84,1.79,11.33,3.17l-1.34,15.35c-7.15-3-14.18-4.51-21.08-4.51-4.96,0-8.49.77-10.6,2.32-2.11,1.54-3.17,3.49-3.17,5.85,0,2.6,1.05,4.9,3.17,6.89,2.11,1.99,6.09,3.96,11.94,5.91,8.94,3.01,15.43,6.62,19.5,10.85,4.06,4.22,6.09,9.59,6.09,16.08,0,8.04-2.72,14.26-8.16,18.64-5.44,4.39-13.73,6.58-24.86,6.58-4.63,0-9.28-.49-13.95-1.46-4.67-.97-8.88-2.4-12.61-4.26l1.46-16.7c3.41,2.36,7.21,4.16,11.39,5.42,4.18,1.26,8.55,1.89,13.1,1.89s7.88-.75,10.48-2.25c2.6-1.5,3.9-3.84,3.9-7.01,0-1.46-.24-2.8-.73-4.02-.49-1.22-1.36-2.33-2.62-3.35-1.26-1.01-2.95-2.01-5.06-2.99-2.11-.97-4.75-1.99-7.92-3.05-8.37-2.6-14.52-6.05-18.46-10.36-3.94-4.31-5.91-9.67-5.91-16.09Z"/>
      </g>
    </g>
  </g>
</svg>